<svg width="69" height="19" viewBox="0 0 69 19" fill="none" xmlns="http://www.w3.org/2000/svg">
<path fill-rule="evenodd" clip-rule="evenodd" d="M62.5731 2.89364C62.5731 4.125 61.5749 5.12321 60.3435 5.12321C59.1121 5.12321 58.1139 4.125 58.1139 2.89364C58.1139 1.66228 59.1121 0.664062 60.3435 0.664062C61.5749 0.664062 62.5731 1.66228 62.5731 2.89364ZM11.0896 1.09647V6.35357C10.1039 5.67296 8.9304 5.29746 7.61612 5.29746C3.76717 5.29746 0.950867 8.1607 0.950867 12.0097C0.950867 15.8351 3.76717 18.7218 7.61612 18.7218C9.16509 18.7218 10.5263 18.1821 11.5824 17.2902L11.9814 18.3463H14.5161V1.09647H11.0896ZM7.89775 15.4831C5.90287 15.4831 4.44778 13.9811 4.44778 12.0097C4.44778 10.0148 5.90287 8.53621 7.89775 8.53621C9.89263 8.53621 11.3477 10.0148 11.3477 12.0097C11.3477 13.9811 9.89263 15.4831 7.89775 15.4831ZM23.355 18.6984C27.2743 18.6984 30.208 15.8117 30.208 11.9862C30.208 8.1607 27.2743 5.29746 23.355 5.29746C19.4356 5.29746 16.502 8.1607 16.502 11.9862C16.502 15.8117 19.4356 18.6984 23.355 18.6984ZM23.355 15.4596C21.3836 15.4596 19.9754 14.0515 19.9754 11.9862C19.9754 9.94436 21.3836 8.51274 23.355 8.51274C25.3264 8.51274 26.7345 9.94436 26.7345 11.9862C26.7345 14.0515 25.3264 15.4596 23.355 15.4596ZM42.0205 14.427C42.0205 17.0086 39.9083 18.6984 36.693 18.6984C33.5247 18.6984 31.389 16.8678 31.389 14.1688H34.7216C34.7451 15.2953 35.6134 15.8586 36.8338 15.8586C37.7726 15.8586 38.6409 15.4127 38.6409 14.5678C38.6409 13.6994 37.5379 13.4413 36.2001 13.2301C34.1818 12.878 31.6002 12.3382 31.6002 9.35763C31.6002 6.96377 33.642 5.29746 36.693 5.29746C39.744 5.29746 41.7623 7.01071 41.7858 9.54538H38.5236C38.5001 8.53621 37.796 8.04335 36.5991 8.04335C35.543 8.04335 34.9093 8.51274 34.9093 9.24028C34.9093 10.0852 35.9889 10.2964 37.3032 10.5311L37.4183 10.552C39.4656 10.9231 42.0205 11.3863 42.0205 14.427ZM51.3235 5.36786C49.798 5.36786 48.4602 5.93113 47.498 6.84642V1.09647H44.0715V18.3229H47.498V11.6811C47.498 9.61579 48.6245 8.37192 50.3378 8.37192C51.8633 8.37192 52.5439 9.31069 52.5439 11.2117V18.3229H55.9704V10.625C55.9704 7.40969 54.1867 5.36786 51.3235 5.36786ZM62.0636 18.3229H58.6371V6.95745H62.0636V18.3229ZM64.883 18.3229H68.3095V6.95745H64.883V18.3229ZM66.6107 5.12321C67.842 5.12321 68.8402 4.125 68.8402 2.89364C68.8402 1.66228 67.842 0.664062 66.6107 0.664062C65.3793 0.664062 64.3811 1.66228 64.3811 2.89364C64.3811 4.125 65.3793 5.12321 66.6107 5.12321Z" fill="white"/>
</svg>
